<svg width="35" height="32" viewBox="0 0 35 32" fill="none" xmlns="http://www.w3.org/2000/svg">
<path d="M24.099 4.95695C24.099 7.69463 21.8797 9.91391 19.142 9.91391C16.4044 9.91391 14.1851 7.69463 14.1851 4.95695C14.1851 2.21932 16.4044 0 19.142 0C21.8797 0 24.099 2.21932 24.099 4.95695Z" fill="#FF4500"/>
<path d="M16.4701 26.7755C7.45321 26.7755 0.143555 19.4659 0.143555 10.449V2.6123C9.16045 2.6123 16.4705 9.92191 16.4705 18.9388L16.4701 26.7755Z" fill="#FF4500"/>
<path d="M34.4295 7.83679C25.4126 7.83679 18.103 15.1464 18.103 24.1633V32C27.1199 32 34.4295 24.6904 34.4295 15.6735V7.83679Z" fill="#FF4500"/>
</svg>
