<svg width="215" height="32" viewBox="0 0 215 32" fill="none" xmlns="http://www.w3.org/2000/svg">
<path d="M23.9555 4.95695C23.9555 7.69463 21.7361 9.91391 18.9985 9.91391C16.2608 9.91391 14.0415 7.69463 14.0415 4.95695C14.0415 2.21932 16.2608 0 18.9985 0C21.7361 0 23.9555 2.21932 23.9555 4.95695Z" fill="#FFFFFF"/>
<path d="M16.3265 26.7756C7.30965 26.7756 0 19.4659 0 10.4491V2.61234C9.0169 2.61234 16.3269 9.92194 16.3269 18.9388L16.3265 26.7756Z" fill="#FFFFFF"/>
<path d="M34.286 7.83676C25.2691 7.83676 17.9595 15.1464 17.9595 24.1633V32C26.9763 32 34.286 24.6903 34.286 15.6735V7.83676Z" fill="#FFFFFF"/>
<path d="M55.7405 26.5455C52.7305 26.5455 50.4072 25.8788 48.771 24.5455C47.1346 23.2121 46.3064 21.3536 46.2861 18.9697H51.2556C51.276 20.303 51.66 21.2323 52.4072 21.7576C53.1751 22.2828 54.3466 22.5455 55.9223 22.5455C58.3669 22.5455 59.589 21.7172 59.589 20.0606C59.589 19.3333 59.3162 18.798 58.7708 18.4545C58.2457 18.0909 57.2253 17.7677 55.7102 17.4848L53.9526 17.1515C49.1447 16.3434 46.7407 14.0909 46.7407 10.3939C46.7407 8.43433 47.468 6.87879 48.9225 5.72727C50.3972 4.57576 52.4782 4 55.1647 4C58.0336 4 60.2253 4.60606 61.7405 5.81818C63.2556 7.0303 64.0639 8.76766 64.1647 11.0303H59.3162C59.2556 9.97978 58.9024 9.21212 58.2556 8.72727C57.6297 8.24242 56.6297 8 55.2556 8C53.0539 8 51.9526 8.72727 51.9526 10.1818C51.9526 10.9091 52.2154 11.4646 52.7405 11.8485C53.2859 12.2323 54.2457 12.5555 55.6193 12.8182L57.4375 13.1515C60.0435 13.6161 61.9327 14.3737 63.1041 15.4242C64.2964 16.4545 64.892 17.8889 64.892 19.7273C64.892 21.9293 64.0842 23.6161 62.4678 24.7879C60.8518 25.9596 58.6093 26.5455 55.7405 26.5455ZM81.5923 26.0606H76.8347C76.5923 25.596 76.4611 25.0101 76.4408 24.303C75.3906 25.7172 73.7239 26.4242 71.4408 26.4242C69.7239 26.4242 68.3399 26 67.2893 25.1515C66.259 24.303 65.7438 23.1313 65.7438 21.6364C65.7438 18.7273 67.7845 17.101 71.865 16.7576L74.3196 16.5455C75.6733 16.404 76.3499 15.8889 76.3499 15C76.3499 13.9495 75.552 13.4242 73.9559 13.4242C72.9862 13.4242 72.2997 13.5758 71.8953 13.8788C71.5118 14.1616 71.2793 14.697 71.1983 15.4848H66.5014C66.7845 11.8687 69.2793 10.0606 73.9862 10.0606C78.633 10.0606 80.9559 11.6667 80.9559 14.8788V23.1818C80.9559 24.4949 81.1681 25.4545 81.5923 26.0606ZM72.865 23.2424C73.936 23.2424 74.7845 22.9697 75.4105 22.4242C76.0369 21.8586 76.3499 21.0202 76.3499 19.9091V18.7576C76.0672 19.0606 75.5421 19.2626 74.7741 19.3636L72.8347 19.5758C71.3196 19.7374 70.562 20.3636 70.562 21.4545C70.562 22 70.7642 22.4343 71.168 22.7576C71.5724 23.0808 72.1377 23.2424 72.865 23.2424ZM92.9465 19.1515V10.4242H97.6737V26.0606H93.0677V23.8485C91.8556 25.5657 90.2192 26.4242 88.1586 26.4242C86.5023 26.4242 85.1789 25.9293 84.1889 24.9394C83.2192 23.9293 82.7343 22.5051 82.7343 20.6667V10.4242H87.4616V19.7273C87.4616 21.5051 88.3002 22.3939 89.9768 22.3939C90.8252 22.3939 91.5326 22.1111 92.098 21.5455C92.6638 20.9798 92.9465 20.1818 92.9465 19.1515ZM110.553 12.303V4.48485H115.28V26.0606H110.674V24.0303C109.624 25.6263 108.058 26.4242 105.977 26.4242C103.876 26.4242 102.22 25.6869 101.008 24.2121C99.7751 22.7374 99.1591 20.7475 99.1591 18.2424C99.1591 15.7374 99.7751 13.7475 101.008 12.2727C102.22 10.798 103.876 10.0606 105.977 10.0606C107.957 10.0606 109.482 10.8081 110.553 12.303ZM107.28 22.6364C109.523 22.6364 110.644 21.1717 110.644 18.2424C110.644 15.3131 109.523 13.8485 107.28 13.8485C106.23 13.8485 105.411 14.2424 104.826 15.0303C104.24 15.798 103.947 16.9091 103.947 18.3636C103.947 21.2121 105.058 22.6364 107.28 22.6364ZM132.874 18.697V19.6364H121.298C121.46 20.7071 121.854 21.5252 122.48 22.0909C123.106 22.6566 123.904 22.9394 124.874 22.9394C126.409 22.9394 127.46 22.3536 128.025 21.1818H132.51C132.086 22.798 131.187 24.0808 129.813 25.0303C128.439 25.9596 126.793 26.4242 124.874 26.4242C122.449 26.4242 120.49 25.6768 118.995 24.1818C117.5 22.6869 116.752 20.7071 116.752 18.2424C116.752 15.7576 117.49 13.7778 118.964 12.303C120.419 10.8081 122.369 10.0606 124.813 10.0606C127.237 10.0606 129.197 10.8384 130.692 12.3939C132.146 13.9697 132.874 16.0707 132.874 18.697ZM124.752 13.5455C122.813 13.5455 121.672 14.5758 121.328 16.6364H128.237C128.076 15.6667 127.692 14.9091 127.086 14.3636C126.48 13.8182 125.702 13.5455 124.752 13.5455ZM146.146 13.9697L149.267 4.48485H154.54L146.994 26.0606H140.934L133.146 4.48485H138.631L141.782 13.9697C142.772 17.0606 143.509 19.5858 143.994 21.5455C144.702 18.7778 145.419 16.2525 146.146 13.9697ZM167.933 26.0606H163.176C162.933 25.596 162.802 25.0101 162.782 24.303C161.731 25.7172 160.064 26.4242 157.782 26.4242C156.064 26.4242 154.681 26 153.63 25.1515C152.6 24.303 152.085 23.1313 152.085 21.6364C152.085 18.7273 154.125 17.101 158.206 16.7576L160.66 16.5455C162.014 16.404 162.691 15.8889 162.691 15C162.691 13.9495 161.893 13.4242 160.297 13.4242C159.327 13.4242 158.64 13.5758 158.236 13.8788C157.852 14.1616 157.62 14.697 157.539 15.4848H152.842C153.125 11.8687 155.62 10.0606 160.327 10.0606C164.973 10.0606 167.297 11.6667 167.297 14.8788V23.1818C167.297 24.4949 167.509 25.4545 167.933 26.0606ZM159.206 23.2424C160.276 23.2424 161.125 22.9697 161.751 22.4242C162.378 21.8586 162.691 21.0202 162.691 19.9091V18.7576C162.408 19.0606 161.883 19.2626 161.115 19.3636L159.176 19.5758C157.66 19.7374 156.903 20.3636 156.903 21.4545C156.903 22 157.105 22.4343 157.509 22.7576C157.913 23.0808 158.479 23.2424 159.206 23.2424ZM178.527 10.0606C180.628 10.0606 182.294 10.798 183.527 12.2727C184.739 13.7475 185.345 15.7374 185.345 18.2424C185.345 20.7475 184.739 22.7374 183.527 24.2121C182.294 25.6869 180.628 26.4242 178.527 26.4242C176.527 26.4242 174.991 25.6667 173.921 24.1515V32H169.194V10.4242H173.8V12.5152C174.87 10.8788 176.446 10.0606 178.527 10.0606ZM177.224 22.6364C178.275 22.6364 179.093 22.2525 179.678 21.4848C180.264 20.697 180.557 19.5758 180.557 18.1212C180.557 15.2727 179.446 13.8485 177.224 13.8485C174.982 13.8485 173.86 15.3131 173.86 18.2424C173.86 21.1717 174.982 22.6364 177.224 22.6364ZM200.362 24.1818C198.867 25.6768 196.877 26.4242 194.392 26.4242C191.908 26.4242 189.918 25.6768 188.423 24.1818C186.928 22.6869 186.18 20.7071 186.18 18.2424C186.18 15.7576 186.928 13.7677 188.423 12.2727C189.898 10.798 191.887 10.0606 194.392 10.0606C196.898 10.0606 198.887 10.798 200.362 12.2727C201.837 13.7475 202.574 15.7374 202.574 18.2424C202.574 20.7273 201.837 22.7071 200.362 24.1818ZM194.392 22.6364C195.483 22.6364 196.322 22.2626 196.908 21.5152C197.493 20.7677 197.786 19.6768 197.786 18.2424C197.786 16.8081 197.493 15.7172 196.908 14.9697C196.322 14.2222 195.483 13.8485 194.392 13.8485C193.281 13.8485 192.433 14.2222 191.847 14.9697C191.261 15.7172 190.968 16.8081 190.968 18.2424C190.968 19.6768 191.261 20.7677 191.847 21.5152C192.433 22.2626 193.281 22.6364 194.392 22.6364ZM213.116 10.1818C213.196 10.1818 213.54 10.202 214.146 10.2424V14.5455H212.934C210.166 14.5455 208.782 15.9596 208.782 18.7879V26.0606H204.055V10.4242H208.661V13.3333C209.388 11.2323 210.873 10.1818 213.116 10.1818Z" fill="#FFFFFF"/>
</svg>
