<svg width="161" height="24" viewBox="0 0 161 24" fill="none" xmlns="http://www.w3.org/2000/svg">
<g clip-path="url(#clip0_94_2085)">
<path d="M17.9667 3.71772C17.9667 5.77098 16.3022 7.43543 14.249 7.43543C12.1957 7.43543 10.5312 5.77098 10.5312 3.71772C10.5312 1.66449 12.1957 0 14.249 0C16.3022 0 17.9667 1.66449 17.9667 3.71772Z" fill="#FFFFFF"/>
<path d="M12.2449 20.0817C5.48224 20.0817 0 14.5994 0 7.8368V1.95926C6.76267 1.95926 12.2452 7.44146 12.2452 14.2041L12.2449 20.0817Z" fill="#FFFFFF"/>
<path d="M25.7146 5.87759C18.9519 5.87759 13.4697 11.3598 13.4697 18.1225V24C20.2324 24 25.7146 18.5178 25.7146 11.7551V5.87759Z" fill="#FFFFFF"/>
<path d="M41.8051 19.9091C39.5477 19.9091 37.8051 19.4091 36.578 18.4091C35.3507 17.4091 34.7295 16.0152 34.7144 14.2273H38.4415C38.4568 15.2273 38.7448 15.9243 39.3051 16.3182C39.8811 16.7121 40.7597 16.9091 41.9415 16.9091C43.7749 16.9091 44.6915 16.2879 44.6915 15.0455C44.6915 14.5 44.4869 14.0985 44.0779 13.8409C43.684 13.5682 42.9188 13.3257 41.7824 13.1136L40.4642 12.8636C36.8583 12.2576 35.0553 10.5682 35.0553 7.79545C35.0553 6.32575 35.6007 5.15909 36.6916 4.29545C37.7977 3.43182 39.3584 3 41.3733 3C43.5249 3 45.1688 3.45454 46.3051 4.36364C47.4415 5.27273 48.0477 6.57575 48.1233 8.27273H44.4869C44.4415 7.48484 44.1766 6.90909 43.6915 6.54545C43.222 6.18182 42.472 6 41.4415 6C39.7902 6 38.9642 6.54545 38.9642 7.63636C38.9642 8.18182 39.1613 8.59847 39.5551 8.88636C39.9642 9.17425 40.684 9.41666 41.7142 9.61364L43.0779 9.86364C45.0324 10.2121 46.4493 10.7803 47.3278 11.5682C48.222 12.3409 48.6688 13.4167 48.6688 14.7955C48.6688 16.447 48.0629 17.7121 46.8506 18.5909C45.6386 19.4697 43.9568 19.9091 41.8051 19.9091ZM61.194 19.5455H57.6258C57.444 19.197 57.3456 18.7576 57.3303 18.2273C56.5427 19.2879 55.2927 19.8182 53.5803 19.8182C52.2927 19.8182 51.2547 19.5 50.4667 18.8636C49.694 18.2273 49.3076 17.3485 49.3076 16.2273C49.3076 14.0455 50.8381 12.8257 53.8985 12.5682L55.7394 12.4091C56.7547 12.303 57.2622 11.9167 57.2622 11.25C57.2622 10.4621 56.6638 10.0682 55.4667 10.0682C54.7394 10.0682 54.2245 10.1818 53.9212 10.4091C53.6336 10.6212 53.4592 11.0227 53.3985 11.6136H49.8758C50.0881 8.90153 51.9592 7.54545 55.4894 7.54545C58.9745 7.54545 60.7167 8.75 60.7167 11.1591V17.3864C60.7167 18.3712 60.8758 19.0909 61.194 19.5455ZM54.6485 17.4318C55.4518 17.4318 56.0882 17.2273 56.5576 16.8182C57.0274 16.3939 57.2622 15.7652 57.2622 14.9318V14.0682C57.0502 14.2955 56.6563 14.447 56.0803 14.5227L54.6258 14.6818C53.4894 14.803 52.9212 15.2727 52.9212 16.0909C52.9212 16.5 53.0729 16.8257 53.3758 17.0682C53.6791 17.3106 54.1031 17.4318 54.6485 17.4318ZM69.7096 14.3636V7.81818H73.2551V19.5455H69.8005V17.8864C68.8914 19.1743 67.6641 19.8182 66.1187 19.8182C64.8765 19.8182 63.884 19.447 63.1414 18.7045C62.4141 17.947 62.0505 16.8788 62.0505 15.5V7.81818H65.596V14.7955C65.596 16.1288 66.2249 16.7955 67.4823 16.7955C68.1187 16.7955 68.6492 16.5833 69.0732 16.1591C69.4976 15.7348 69.7096 15.1364 69.7096 14.3636ZM82.9145 9.22727V3.36364H86.46V19.5455H83.0054V18.0227C82.2174 19.2197 81.0434 19.8182 79.4827 19.8182C77.907 19.8182 76.6645 19.2652 75.7554 18.1591C74.831 17.053 74.369 15.5606 74.369 13.6818C74.369 11.803 74.831 10.3106 75.7554 9.20455C76.6645 8.09847 77.907 7.54545 79.4827 7.54545C80.9674 7.54545 82.1116 8.10607 82.9145 9.22727ZM80.46 16.9773C82.1418 16.9773 82.9827 15.8788 82.9827 13.6818C82.9827 11.4848 82.1418 10.3864 80.46 10.3864C79.672 10.3864 79.0583 10.6818 78.619 11.2727C78.1798 11.8485 77.96 12.6818 77.96 13.7727C77.96 15.9091 78.7934 16.9773 80.46 16.9773ZM99.6549 14.0227V14.7273H90.9731C91.0945 15.5303 91.39 16.1439 91.8595 16.5682C92.3293 16.9924 92.9276 17.2045 93.6549 17.2045C94.8065 17.2045 95.5945 16.7652 96.0186 15.8864H99.3822C99.064 17.0985 98.39 18.0606 97.3595 18.7727C96.3293 19.4697 95.0945 19.8182 93.6549 19.8182C91.8367 19.8182 90.3673 19.2576 89.2458 18.1364C88.1247 17.0152 87.564 15.5303 87.564 13.6818C87.564 11.8182 88.1173 10.3333 89.2231 9.22727C90.314 8.10607 91.7764 7.54545 93.6095 7.54545C95.4276 7.54545 96.8975 8.1288 98.0186 9.29546C99.1095 10.4773 99.6549 12.053 99.6549 14.0227ZM93.564 10.1591C92.1095 10.1591 91.2536 10.9318 90.9958 12.4773H96.1776C96.0565 11.75 95.7686 11.1818 95.314 10.7727C94.8595 10.3636 94.2764 10.1591 93.564 10.1591ZM109.609 10.4773L111.95 3.36364H115.905L110.245 19.5455H105.7L99.8591 3.36364H103.973L106.336 10.4773C107.079 12.7955 107.632 14.6894 107.995 16.1591C108.526 14.0833 109.064 12.1894 109.609 10.4773ZM125.95 19.5455H122.381C122.2 19.197 122.101 18.7576 122.086 18.2273C121.298 19.2879 120.048 19.8182 118.336 19.8182C117.048 19.8182 116.01 19.5 115.222 18.8636C114.45 18.2273 114.063 17.3485 114.063 16.2273C114.063 14.0455 115.593 12.8257 118.654 12.5682L120.495 12.4091C121.51 12.303 122.018 11.9167 122.018 11.25C122.018 10.4621 121.419 10.0682 120.222 10.0682C119.495 10.0682 118.98 10.1818 118.677 10.4091C118.389 10.6212 118.215 11.0227 118.154 11.6136H114.631C114.843 8.90153 116.715 7.54545 120.245 7.54545C123.73 7.54545 125.472 8.75 125.472 11.1591V17.3864C125.472 18.3712 125.631 19.0909 125.95 19.5455ZM119.404 17.4318C120.207 17.4318 120.843 17.2273 121.313 16.8182C121.783 16.3939 122.018 15.7652 122.018 14.9318V14.0682C121.806 14.2955 121.412 14.447 120.836 14.5227L119.381 14.6818C118.245 14.803 117.677 15.2727 117.677 16.0909C117.677 16.5 117.829 16.8257 118.131 17.0682C118.434 17.3106 118.859 17.4318 119.404 17.4318ZM133.895 7.54545C135.471 7.54545 136.721 8.09847 137.645 9.20455C138.554 10.3106 139.009 11.803 139.009 13.6818C139.009 15.5606 138.554 17.053 137.645 18.1591C136.721 19.2652 135.471 19.8182 133.895 19.8182C132.395 19.8182 131.243 19.25 130.44 18.1136V24H126.895V7.81818H130.35V9.38636C131.152 8.15909 132.334 7.54545 133.895 7.54545ZM132.918 16.9773C133.706 16.9773 134.319 16.6894 134.759 16.1136C135.198 15.5227 135.418 14.6818 135.418 13.5909C135.418 11.4545 134.584 10.3864 132.918 10.3864C131.236 10.3864 130.395 11.4848 130.395 13.6818C130.395 15.8788 131.236 16.9773 132.918 16.9773ZM150.271 18.1364C149.15 19.2576 147.658 19.8182 145.794 19.8182C143.93 19.8182 142.438 19.2576 141.317 18.1364C140.196 17.0152 139.635 15.5303 139.635 13.6818C139.635 11.8182 140.196 10.3257 141.317 9.20455C142.423 8.09847 143.915 7.54545 145.794 7.54545C147.673 7.54545 149.165 8.09847 150.271 9.20455C151.378 10.3106 151.93 11.803 151.93 13.6818C151.93 15.5455 151.378 17.0303 150.271 18.1364ZM145.794 16.9773C146.612 16.9773 147.241 16.697 147.68 16.1364C148.12 15.5757 148.34 14.7576 148.34 13.6818C148.34 12.6061 148.12 11.7879 147.68 11.2273C147.241 10.6667 146.612 10.3864 145.794 10.3864C144.961 10.3864 144.324 10.6667 143.885 11.2273C143.446 11.7879 143.226 12.6061 143.226 13.6818C143.226 14.7576 143.446 15.5757 143.885 16.1364C144.324 16.697 144.961 16.9773 145.794 16.9773ZM159.836 7.63636C159.897 7.63636 160.155 7.65153 160.609 7.68182V10.9091H159.7C157.624 10.9091 156.586 11.9697 156.586 14.0909V19.5455H153.041V7.81818H156.495V10C157.041 8.42425 158.155 7.63636 159.836 7.63636Z" fill="#FFFFFF"/>
</g>
<defs>
<clipPath id="clip0_94_2085">
<rect width="160.609" height="24" fill="white"/>
</clipPath>
</defs>
</svg>
